<svg width="256" height="256" viewBox="0 0 256 256" fill="none" xmlns="http://www.w3.org/2000/svg">
<style>
    .bg { fill: #f0f0f0; }
    .blue { fill: #2196F3; }
    .white { stroke: white; }
    @media (prefers-color-scheme: dark) {
        .bg { fill: #2E2E2E; }
        .blue { fill: #0d8eff; }
        .white { stroke: #FFFFFF; }
    }
</style>
<rect width="256" height="256" rx="56" class="blue"/>
<path d="M168.512 68.1387C175.065 71.973 175.56 80.932 170.022 85.313L132.834 116.354C132.124 116.944 131.112 116.828 130.542 116.111L104.458 84.1554C103.888 83.4385 104.001 82.4153 104.711 81.8459L141.899 50.8048C147.437 46.4238 156.406 46.9183 161.944 51.2993L168.512 68.1387Z" class="white" stroke-width="12" stroke-linecap="round" stroke-linejoin="round"/>
<path d="M121.141 120.306L87.9784 148.011C82.4405 152.392 73.4716 151.897 66.919 148.063L50.0801 138.223C43.5275 134.389 43.0329 125.43 48.5709 121.049L85.7589 89.9936C86.4686 89.4242 87.4802 89.5404 88.0504 90.2573L114.134 122.213C114.704 122.93 114.592 123.953 113.882 124.522L121.141 120.306Z" class="white" stroke-width="12" stroke-linecap="round" stroke-linejoin="round"/>
<path d="M152.744 100.957L128.859 120.306L113.882 124.522" class="white" stroke-width="12" stroke-linecap="round" stroke-linejoin="round"/>
</svg> 